<?xml version="1.0" encoding="utf-8"?>
<!-- Generator: Adobe Illustrator 21.0.2, SVG Export Plug-In . SVG Version: 6.00 Build 0)  -->
<svg version="1.1" id="Capa_1" xmlns="http://www.w3.org/2000/svg" xmlns:xlink="http://www.w3.org/1999/xlink" x="0px" y="0px"
	 viewBox="0 0 50 50" style="enable-background:new 0 0 50 50;" xml:space="preserve">
<style type="text/css">
	.st0{fill:#B2B2B2;}
</style>
<g>
	<path class="st0" d="M40.9,19.5H9.1C8,19.5,7,18.6,7,17.4v-0.3C7,15.9,8,15,9.1,15h31.7c1.2,0,2.1,1,2.1,2.1v0.2
		C43,18.6,42,19.5,40.9,19.5z"/>
	<path class="st0" d="M40.9,27.3H9.1c-1.2,0-2.1-1-2.1-2.1V25c0-1.2,1-2.1,2.1-2.1h31.7c1.2,0,2.1,1,2.1,2.1v0.2
		C43,26.3,42,27.3,40.9,27.3z"/>
	<path class="st0" d="M40.9,35H9.1C7.9,35,7,34,7,32.9v-0.2c0-1.3,1-2.2,2.1-2.2h31.7c1.2,0,2.1,1,2.1,2.1v0.2C43,34,42,35,40.9,35z
		"/>
</g>
</svg>
