<?xml version="1.0" encoding="utf-8"?>
<!-- Generator: Adobe Illustrator 23.0.4, SVG Export Plug-In . SVG Version: 6.00 Build 0)  -->
<svg version="1.1" id="Capa_1" xmlns="http://www.w3.org/2000/svg" xmlns:xlink="http://www.w3.org/1999/xlink" x="0px" y="0px"
	 viewBox="0 0 123 123" style="enable-background:new 0 0 123 123;" xml:space="preserve">
<style type="text/css">
	.st0{fill:#1A171B;}
	.st1{fill-rule:evenodd;clip-rule:evenodd;fill:#FF9F37;}
	.st2{fill:#FFFFFF;}
</style>
<path class="st0" d="M61.5,123c-13.1,0-29-11.1-29-24.9V36.3c0-12.8,13.7-23.3,26-24.8V0h3c13.4,0,29,9.5,29,36.3v61.8
	C90.5,111.9,74.6,123,61.5,123z M61.5,17.1c-10.2,0-23.1,9-23.1,19.1v61.8c0,10.1,12.9,19.1,23.1,19.1s23.1-9,23.1-19.1V36.3
	c0-17.4-7.5-28.6-20.2-30.2v11.1C64.5,17.1,61.5,17.1,61.5,17.1z"/>
<path class="st1" d="M35.5,98.1c0,12.2,14.6,22,26,22l0,0c11.5,0,26.1-9.9,26.1-22V36.3C87.6,10.8,73,2.9,61.5,2.9v11.3
	c-11.5,0-26,9.9-26,22V98.1L35.5,98.1z"/>
<path class="st2" d="M69.5,79.1v11.6c0,5.8-2.5,8.7-7.5,8.7c-8.3,0-8.7-6.1-8.7-16V49.9c0-7,2.7-10.2,8.6-10.2
	c2.6,0,4.8,1.2,5.8,3.3c1.1,2,1.1,3.9,1.1,14.3v1h6.8V47.5c0-5.9-1.9-9.8-5.9-12.2c-2.3-1.4-5.2-2.1-8.3-2.1
	c-4.8,0-8.3,1.3-10.9,4.2c-4,3.8-4,8-4,13.4v37.4c0,6.5,0.9,9.8,3.3,12.8c2.7,3.2,6.5,4.8,11.3,4.8c10.1,0,15.2-5.1,15.2-15.1V79.1
	H69.5z"/>
</svg>
