<?xml version="1.0" encoding="utf-8"?>
<!-- Generator: Adobe Illustrator 23.0.1, SVG Export Plug-In . SVG Version: 6.00 Build 0)  -->
<svg version="1.1" id="Capa_1" xmlns="http://www.w3.org/2000/svg" xmlns:xlink="http://www.w3.org/1999/xlink" x="0px" y="0px"
	 viewBox="0 0 139.8 31.9" style="enable-background:new 0 0 139.8 31.9;" xml:space="preserve">
<style type="text/css">
	.st0{fill:#F08B27;}
	.st1{fill:#929395;}
</style>
<g>
	<g>
		<path d="M8.6,31.9C4.7,31.9,0,29,0,25.5V9.4c0-3.3,4.1-6,7.8-6.4V0h0.8c4,0,8.6,2.5,8.6,9.4v16.1C17.3,29,12.5,31.9,8.6,31.9
			 M8.6,4.3c-3.1,0-7,2.4-7,5.1v16.1c0,2.7,3.9,5.1,7,5.1s7-2.4,7-5.1V9.4c0-5.4-3.1-7.7-6.2-8v2.9C9.4,4.3,8.6,4.3,8.6,4.3z"/>
		<path class="st0" d="M10.8,19.8v3.4c0,1.3-0.6,1.9-1.9,1.9c-2,0-2.2-1-2.2-3.8v-8.7c0-1.6,0.7-2.3,2.2-2.3c0.7,0,1.2,0.3,1.4,0.7
			c0.3,0.4,0.3,0.9,0.3,3.5v0.6h2.8v-3.1c0-1.7-0.7-2.8-2-3.5c-0.7-0.4-1.7-0.6-2.7-0.6C7.2,7.9,6.1,8.2,5.2,9
			c-1.3,1.1-1.3,2.3-1.3,3.8v9.7c0,1.8,0.3,2.7,1.1,3.6c0.9,0.9,2.1,1.4,3.7,1.4c4.1,0,4.9-2.3,4.9-4.3v-3.4L10.8,19.8L10.8,19.8z"
			/>
	</g>
	<g>
		<g>
			<path d="M31.4,21.5c-0.4,0.3-0.8,0.5-1.3,0.7c-0.5,0.2-1,0.3-1.6,0.3c-0.8,0-1.6-0.2-2.2-0.5c-0.6-0.3-1.2-0.7-1.6-1.2
				c-0.4-0.5-0.8-1.1-1-1.8c-0.2-0.7-0.3-1.5-0.3-2.3c0-0.8,0.1-1.6,0.3-2.3c0.2-0.7,0.6-1.3,1-1.9c0.4-0.5,1-1,1.6-1.3
				c0.6-0.3,1.4-0.5,2.2-0.5c0.6,0,1.1,0.1,1.6,0.3c0.5,0.2,0.9,0.4,1.3,0.7l-1,2.4c-0.3-0.2-0.5-0.3-0.8-0.4
				c-0.3-0.1-0.6-0.1-0.9-0.1c-0.6,0-1,0.2-1.5,0.7c-0.4,0.5-0.6,1.3-0.6,2.3c0,1,0.2,1.8,0.6,2.3c0.4,0.5,0.9,0.7,1.5,0.7
				c0.6,0,1.2-0.2,1.7-0.5L31.4,21.5z"/>
			<path d="M39,14.5c-0.7-0.2-1.4-0.3-1.9-0.3c-0.5,0-0.9,0.2-1.2,0.6v7.4h-3.3V11.1h3.2v1.9c0.4-0.6,0.8-1.1,1.3-1.5
				c0.5-0.4,1.1-0.6,1.9-0.6V14.5z"/>
			<path d="M49,16.2c0,0.2,0,0.4,0,0.8c0,0.3,0,0.6-0.1,0.8h-5.9c0.1,1.4,0.9,2.1,2.4,2.1c0.4,0,0.8-0.1,1.2-0.2
				c0.5-0.1,0.9-0.3,1.4-0.4l0.2,2.6c-0.6,0.2-1.1,0.4-1.7,0.5c-0.5,0.1-1.1,0.2-1.6,0.2c-0.9,0-1.6-0.1-2.3-0.4
				c-0.6-0.3-1.2-0.7-1.6-1.2c-0.4-0.5-0.8-1.1-1-1.8c-0.2-0.7-0.3-1.5-0.3-2.3c0-0.8,0.1-1.5,0.3-2.2c0.2-0.7,0.5-1.3,0.9-1.9
				c0.4-0.5,0.9-1,1.5-1.3c0.6-0.3,1.3-0.5,2.1-0.5c0.7,0,1.4,0.1,1.9,0.4c0.5,0.3,1,0.7,1.3,1.1c0.4,0.5,0.6,1,0.8,1.7
				C48.9,14.7,49,15.4,49,16.2z M46.2,15.8c0-0.7-0.2-1.3-0.4-1.7c-0.2-0.4-0.6-0.6-1.1-0.6c-0.4,0-0.8,0.2-1,0.6
				c-0.3,0.4-0.4,1-0.5,1.8H46.2z"/>
			<path d="M55.5,22.2v-1.1c-0.3,0.4-0.7,0.7-1.1,0.9c-0.4,0.2-0.9,0.3-1.5,0.3c-0.4,0-0.8-0.1-1.2-0.2c-0.4-0.2-0.7-0.4-1-0.7
				c-0.3-0.3-0.5-0.7-0.6-1.1c-0.2-0.4-0.2-0.9-0.2-1.5c0-0.5,0.1-1,0.2-1.4c0.2-0.4,0.4-0.8,0.7-1.1c0.3-0.3,0.6-0.6,1-0.8
				c0.4-0.2,0.9-0.3,1.4-0.3c0.5,0,0.9,0,1.2,0.1c0.3,0.1,0.6,0.2,0.9,0.4v-0.7c0-0.6-0.2-1-0.5-1.3c-0.3-0.2-0.8-0.4-1.4-0.4
				c-0.4,0-0.7,0-1.1,0.1c-0.4,0.1-0.8,0.2-1.2,0.3L51,11.4c0.4-0.1,0.9-0.3,1.5-0.4c0.6-0.1,1.1-0.2,1.6-0.2c1.6,0,2.7,0.3,3.5,1
				c0.7,0.7,1.1,1.7,1.1,3.1v7.3H55.5z M55.4,17.6c-0.3-0.2-0.7-0.3-1.1-0.3c-0.3,0-0.6,0.1-0.9,0.3c-0.3,0.2-0.4,0.6-0.4,1.2
				c0,0.5,0.1,0.9,0.4,1.1c0.2,0.2,0.5,0.3,0.8,0.3c0.3,0,0.5,0,0.7-0.1c0.2-0.1,0.3-0.2,0.5-0.3V17.6z"/>
			<path d="M64.7,13.8v4.7c0,0.4,0.1,0.7,0.2,0.9c0.1,0.2,0.3,0.3,0.6,0.3c0.1,0,0.3,0,0.4,0c0.1,0,0.3-0.1,0.4-0.1l0.5,2.6
				c-0.8,0.2-1.6,0.3-2.3,0.3c-1,0-1.7-0.2-2.3-0.7c-0.5-0.5-0.8-1.4-0.8-2.6v-5.2h-1.8v-1.4l1.8-1.4V9.4l3.3-1.8v3.5H67v2.7H64.7z"
				/>
			<path d="M72,7.6c0,0.5-0.2,1-0.6,1.4c-0.4,0.4-0.8,0.6-1.3,0.6c-0.5,0-1-0.2-1.4-0.6c-0.4-0.4-0.6-0.8-0.6-1.4
				c0-0.5,0.2-1,0.6-1.4s0.8-0.6,1.4-0.6c0.5,0,1,0.2,1.3,0.6S72,7.1,72,7.6z M68.4,22.2V11.1h3.3v11.2H68.4z"/>
			<path d="M80,22.2v-7.4c0-0.8-0.3-1.1-1-1.1c-0.6,0-1.2,0.3-1.7,0.9v7.7H74V11.1h3.2v1.7c1-1.3,2.2-1.9,3.4-1.9
				c0.9,0,1.6,0.3,2.1,0.9c0.4,0.6,0.7,1.3,0.7,2.3v8.3H80z"/>
			<path d="M90.2,22.2v-1.1c-0.3,0.4-0.7,0.7-1.1,0.9c-0.4,0.2-0.9,0.3-1.5,0.3c-0.4,0-0.8-0.1-1.2-0.2c-0.4-0.2-0.7-0.4-1-0.7
				c-0.3-0.3-0.5-0.7-0.6-1.1c-0.2-0.4-0.2-0.9-0.2-1.5c0-0.5,0.1-1,0.2-1.4c0.2-0.4,0.4-0.8,0.7-1.1c0.3-0.3,0.6-0.6,1-0.8
				c0.4-0.2,0.9-0.3,1.4-0.3c0.5,0,0.9,0,1.2,0.1c0.3,0.1,0.6,0.2,0.9,0.4v-0.7c0-0.6-0.2-1-0.5-1.3c-0.3-0.2-0.8-0.4-1.4-0.4
				c-0.4,0-0.7,0-1.1,0.1c-0.4,0.1-0.8,0.2-1.2,0.3l-0.3-2.5c0.4-0.1,0.9-0.3,1.5-0.4c0.6-0.1,1.1-0.2,1.6-0.2c1.6,0,2.7,0.3,3.5,1
				c0.7,0.7,1.1,1.7,1.1,3.1v7.3H90.2z M90.1,17.6c-0.3-0.2-0.7-0.3-1.1-0.3c-0.3,0-0.6,0.1-0.9,0.3c-0.3,0.2-0.4,0.6-0.4,1.2
				c0,0.5,0.1,0.9,0.4,1.1c0.2,0.2,0.5,0.3,0.8,0.3c0.3,0,0.5,0,0.7-0.1c0.2-0.1,0.3-0.2,0.5-0.3V17.6z"/>
		</g>
		<g>
			<path class="st1" d="M101,22.5v-0.9c-0.3,0.3-0.6,0.5-0.9,0.8c-0.3,0.2-0.7,0.3-1.1,0.3c-0.4,0-0.8-0.1-1.2-0.4
				c-0.4-0.2-0.7-0.6-1-1.1c-0.3-0.5-0.5-1.1-0.7-1.8C96,18.8,95.9,18,95.9,17c0-0.9,0.1-1.7,0.3-2.4c0.2-0.7,0.4-1.3,0.7-1.9
				c0.3-0.5,0.6-0.9,1-1.2c0.4-0.3,0.8-0.4,1.2-0.4c0.4,0,0.7,0.1,1,0.2c0.3,0.1,0.6,0.3,0.8,0.5V4.7h2.3v17.8H101z M100.9,13.5
				c-0.2-0.1-0.3-0.3-0.5-0.3c-0.2-0.1-0.4-0.1-0.6-0.1c-0.5,0-0.8,0.3-1.2,1c-0.3,0.7-0.5,1.7-0.5,3c0,0.7,0,1.3,0.1,1.8
				c0.1,0.5,0.2,0.9,0.3,1.1c0.1,0.3,0.3,0.5,0.5,0.6c0.2,0.1,0.4,0.2,0.7,0.2c0.4,0,0.8-0.2,1.1-0.5V13.5z"/>
			<path class="st1" d="M111.8,16.4c0,0.2,0,0.4,0,0.6c0,0.2,0,0.4-0.1,0.6h-4.8c0,0.9,0.2,1.6,0.5,2.2c0.4,0.6,0.9,0.8,1.7,0.8
				c0.3,0,0.6-0.1,0.9-0.2c0.3-0.1,0.7-0.2,1-0.4l0.3,1.8c-0.5,0.3-0.9,0.4-1.3,0.6c-0.4,0.1-0.8,0.2-1.3,0.2c-1.3,0-2.3-0.5-3-1.5
				c-0.7-1-1.1-2.4-1.1-4.3c0-0.8,0.1-1.5,0.3-2.3c0.2-0.7,0.4-1.3,0.7-1.9c0.3-0.5,0.7-1,1.2-1.3c0.5-0.3,1-0.5,1.6-0.5
				c0.6,0,1,0.1,1.5,0.4c0.4,0.3,0.8,0.7,1,1.1c0.3,0.5,0.5,1.1,0.6,1.7S111.8,15.7,111.8,16.4z M109.7,16.1c0-0.9-0.1-1.7-0.3-2.2
				c-0.2-0.6-0.5-0.9-1-0.9c-0.4,0-0.8,0.3-1,0.8c-0.3,0.5-0.4,1.3-0.5,2.3H109.7z"/>
			<path class="st1" d="M118.6,19.4c0,0.4-0.1,0.9-0.2,1.2c-0.1,0.4-0.3,0.7-0.6,1c-0.3,0.3-0.6,0.5-1,0.7c-0.4,0.2-0.8,0.3-1.3,0.3
				c-0.6,0-1.1-0.1-1.6-0.3c-0.5-0.2-1-0.4-1.5-0.8l0.8-1.8c0.4,0.3,0.8,0.5,1.2,0.6c0.4,0.1,0.7,0.2,1,0.2c0.3,0,0.6-0.1,0.8-0.3
				c0.2-0.2,0.3-0.5,0.3-0.8c0-0.4-0.2-0.8-0.6-1.2c-0.4-0.3-0.8-0.7-1.3-1.1c-0.5-0.4-0.9-0.8-1.3-1.3c-0.4-0.5-0.6-1.1-0.6-1.8
				c0-0.4,0.1-0.8,0.2-1.2c0.2-0.4,0.4-0.7,0.6-1c0.3-0.3,0.6-0.5,0.9-0.7c0.4-0.2,0.8-0.3,1.2-0.3c0.6,0,1,0.1,1.5,0.2
				c0.4,0.1,0.8,0.4,1.3,0.6l-0.8,1.8c-0.4-0.2-0.7-0.4-0.9-0.5c-0.3-0.1-0.5-0.1-0.8-0.1c-0.3,0-0.6,0.1-0.8,0.3
				c-0.2,0.2-0.3,0.5-0.3,0.8c0,0.3,0.1,0.5,0.3,0.7c0.2,0.2,0.4,0.5,0.7,0.7c0.3,0.2,0.6,0.5,0.9,0.7c0.3,0.3,0.6,0.5,0.9,0.8
				c0.3,0.3,0.5,0.7,0.7,1C118.5,18.5,118.6,18.9,118.6,19.4z"/>
			<path class="st1" d="M122.4,8.1c0,0.4-0.1,0.8-0.4,1.1c-0.3,0.3-0.6,0.5-1,0.5c-0.4,0-0.8-0.2-1-0.5c-0.3-0.3-0.4-0.7-0.4-1.1
				c0-0.4,0.1-0.8,0.4-1.1c0.3-0.3,0.6-0.5,1-0.5c0.4,0,0.8,0.2,1,0.5C122.3,7.3,122.4,7.7,122.4,8.1z M119.9,22.5V11.3h2.3v11.1
				H119.9z"/>
			<path class="st1" d="M130.9,23.6c0,1.3-0.3,2.2-0.8,2.8c-0.6,0.6-1.3,0.8-2.3,0.8c-0.6,0-1,0-1.5-0.1c-0.4-0.1-0.8-0.2-1.3-0.4
				l0.3-2c0.7,0.3,1.4,0.4,2,0.4c0.5,0,0.8-0.1,1-0.4c0.2-0.3,0.3-0.7,0.3-1.2v-1.8c-0.3,0.3-0.6,0.5-0.9,0.7
				c-0.3,0.2-0.7,0.3-1,0.3c-0.4,0-0.8-0.1-1.2-0.4c-0.4-0.2-0.7-0.6-1-1.1c-0.3-0.5-0.5-1.1-0.7-1.8c-0.2-0.7-0.3-1.5-0.3-2.4
				c0-0.9,0.1-1.7,0.3-2.4c0.2-0.7,0.4-1.4,0.7-1.9c0.3-0.5,0.7-0.9,1-1.2c0.4-0.3,0.8-0.4,1.2-0.4c0.4,0,0.7,0.1,1,0.3
				c0.3,0.2,0.6,0.4,0.8,0.7v-0.8h2.2V23.6z M128.6,13.5c-0.2-0.1-0.3-0.3-0.5-0.3c-0.2-0.1-0.4-0.1-0.6-0.1c-0.5,0-0.8,0.3-1.2,1
				c-0.3,0.7-0.5,1.7-0.5,3c0,0.7,0,1.3,0.1,1.7c0.1,0.5,0.2,0.8,0.3,1.1c0.1,0.3,0.3,0.5,0.5,0.6c0.2,0.1,0.4,0.2,0.7,0.2
				c0.4,0,0.8-0.2,1.1-0.5V13.5z"/>
			<path class="st1" d="M137.5,22.5v-8.2c0-0.8-0.3-1.2-0.9-1.2c-0.3,0-0.6,0.1-0.9,0.3c-0.3,0.2-0.5,0.4-0.7,0.8v8.3h-2.3V11.3h2.2
				v1.6c0.3-0.6,0.8-1,1.2-1.4c0.5-0.3,1-0.5,1.5-0.5c0.8,0,1.3,0.3,1.6,0.8c0.3,0.5,0.5,1.2,0.5,2v8.7H137.5z"/>
		</g>
	</g>
</g>
</svg>
