<?xml version="1.0" encoding="utf-8"?>
<!-- Generator: Adobe Illustrator 23.0.1, SVG Export Plug-In . SVG Version: 6.00 Build 0)  -->
<svg version="1.1" id="Capa_1" xmlns="http://www.w3.org/2000/svg" xmlns:xlink="http://www.w3.org/1999/xlink" x="0px" y="0px"
	 viewBox="0 0 58 123" style="enable-background:new 0 0 58 123;" xml:space="preserve">
<style type="text/css">
	.st0{fill:#1A171B;}
	.st1{fill-rule:evenodd;clip-rule:evenodd;fill:#FF9F37;}
	.st2{fill:#FFFFFF;}
</style>
<path class="st0" d="M29,123c-13.14,0-29-11.13-29-24.95V36.26c0-12.84,13.68-23.3,26.05-24.77V0H29c13.38,0,29,9.5,29,36.26v61.79
	C58,111.87,42.13,123,29,123z M29,17.13c-10.19,0-23.11,9.01-23.11,19.13v61.79c0,10.12,12.92,19.13,23.11,19.13
	c10.19,0,23.11-9.01,23.11-19.13V36.26c0-17.35-7.53-28.63-20.16-30.25v11.12H29z"/>
<path class="st1" d="M2.95,98.05c0,12.17,14.6,22.04,26.05,22.04l0,0c11.45,0,26.06-9.87,26.06-22.04V36.26
	c0-25.49-14.6-33.35-26.06-33.35v11.31c-11.45,0-26.05,9.87-26.05,22.04V98.05L2.95,98.05z"/>
<path class="st2" d="M36.99,79.13v11.62c0,5.84-2.45,8.67-7.5,8.67c-8.26,0-8.68-6.08-8.68-15.99V49.87
	c0-6.98,2.73-10.24,8.58-10.24c2.61,0,4.79,1.22,5.83,3.28c1.07,2.03,1.07,3.9,1.07,14.28v0.99h6.83V47.53
	c0-5.86-1.94-9.84-5.91-12.16c-2.28-1.37-5.15-2.1-8.32-2.1c-4.8,0-8.27,1.34-10.87,4.18c-3.96,3.8-3.96,8.03-3.96,13.39v37.37
	c0,6.5,0.86,9.85,3.29,12.83c2.73,3.21,6.54,4.84,11.33,4.84c10.1,0,15.22-5.09,15.22-15.13V79.13H36.99z"/>
</svg>
