<?xml version="1.0" encoding="utf-8"?>
<!-- Generator: Adobe Illustrator 23.0.1, SVG Export Plug-In . SVG Version: 6.00 Build 0)  -->
<svg version="1.1" id="Capa_1" xmlns="http://www.w3.org/2000/svg" xmlns:xlink="http://www.w3.org/1999/xlink" x="0px" y="0px"
	 viewBox="0 0 97.22 41.28" style="enable-background:new 0 0 97.22 41.28;" xml:space="preserve">
<style type="text/css">
	.st0{fill:#FFFFFF;}
	.st1{fill:#929395;}
	.st2{fill:#F08B27;}
	.st3{fill:none;stroke:#F08B27;stroke-width:0.945;}
</style>
<g>
	<path class="st0" d="M37.55,15.26c-0.36,0.25-0.78,0.46-1.26,0.64c-0.48,0.17-1,0.26-1.57,0.26c-0.82,0-1.54-0.15-2.16-0.44
		c-0.62-0.29-1.14-0.68-1.57-1.18c-0.42-0.5-0.74-1.08-0.95-1.76c-0.21-0.68-0.32-1.4-0.32-2.17c0-0.79,0.11-1.52,0.32-2.21
		c0.21-0.68,0.53-1.28,0.95-1.79c0.43-0.51,0.95-0.92,1.57-1.22c0.62-0.3,1.34-0.45,2.16-0.45c0.57,0,1.09,0.09,1.57,0.26
		c0.48,0.17,0.9,0.39,1.26,0.64l-0.99,2.27c-0.25-0.16-0.52-0.28-0.79-0.37s-0.58-0.13-0.91-0.13c-0.53,0-1.01,0.24-1.42,0.72
		c-0.41,0.48-0.61,1.23-0.61,2.25c0,0.98,0.21,1.7,0.63,2.18c0.42,0.48,0.91,0.72,1.47,0.72c0.61,0,1.17-0.17,1.68-0.5L37.55,15.26z
		"/>
	<path class="st0" d="M44.82,8.49c-0.71-0.22-1.32-0.31-1.83-0.27s-0.89,0.22-1.14,0.55v7.17h-3.19V5.18h3.07v1.79
		c0.36-0.61,0.77-1.1,1.24-1.46c0.46-0.36,1.08-0.54,1.85-0.54V8.49z"/>
	<path class="st0" d="M54.49,10.09c0,0.17,0,0.42-0.01,0.73c-0.01,0.31-0.03,0.56-0.06,0.73h-5.64c0.09,1.37,0.85,2.05,2.27,2.05
		c0.36,0,0.76-0.05,1.2-0.16c0.44-0.11,0.88-0.24,1.32-0.4l0.21,2.48c-0.55,0.2-1.08,0.36-1.59,0.47s-1.02,0.16-1.52,0.16
		c-0.85,0-1.59-0.14-2.21-0.41s-1.14-0.66-1.56-1.16c-0.42-0.5-0.72-1.09-0.92-1.77c-0.2-0.68-0.3-1.44-0.3-2.25
		c0-0.74,0.1-1.45,0.31-2.12c0.2-0.68,0.5-1.27,0.88-1.79c0.39-0.52,0.87-0.93,1.45-1.24c0.58-0.31,1.25-0.46,2.01-0.46
		c0.71,0,1.32,0.13,1.84,0.4c0.52,0.27,0.95,0.63,1.3,1.1c0.35,0.46,0.6,1.01,0.77,1.64C54.41,8.72,54.49,9.38,54.49,10.09z
		 M51.76,9.74c-0.03-0.71-0.16-1.26-0.4-1.65c-0.24-0.39-0.57-0.59-1.01-0.59c-0.41,0-0.74,0.18-1,0.53
		c-0.26,0.35-0.43,0.92-0.51,1.71H51.76z"/>
	<path class="st0" d="M60.79,15.94v-1.01c-0.28,0.35-0.63,0.63-1.04,0.85c-0.41,0.22-0.89,0.33-1.44,0.33
		c-0.39,0-0.77-0.07-1.13-0.22c-0.36-0.15-0.67-0.37-0.93-0.66c-0.26-0.29-0.47-0.64-0.63-1.06c-0.16-0.42-0.24-0.89-0.24-1.43
		c0-0.49,0.07-0.94,0.22-1.37c0.15-0.42,0.36-0.79,0.64-1.1c0.27-0.31,0.61-0.55,1-0.73c0.39-0.18,0.84-0.27,1.35-0.27
		c0.46,0,0.85,0.05,1.17,0.14c0.32,0.09,0.63,0.23,0.91,0.4V9.12c0-0.58-0.15-0.99-0.44-1.23c-0.29-0.24-0.74-0.35-1.33-0.35
		c-0.35,0-0.7,0.03-1.06,0.09C57.48,7.7,57.1,7.8,56.71,7.92l-0.28-2.45c0.43-0.14,0.91-0.26,1.45-0.37
		c0.54-0.1,1.05-0.15,1.52-0.15c1.51,0,2.62,0.33,3.34,0.98c0.72,0.65,1.07,1.65,1.07,2.98v7.03H60.79z M60.67,11.46
		c-0.28-0.22-0.64-0.33-1.06-0.33c-0.31,0-0.59,0.11-0.84,0.33c-0.24,0.22-0.37,0.59-0.37,1.11c0,0.5,0.11,0.87,0.34,1.09
		c0.23,0.22,0.5,0.33,0.81,0.33c0.27,0,0.49-0.04,0.66-0.11c0.17-0.07,0.32-0.17,0.45-0.29V11.46z"/>
	<path class="st0" d="M69.62,7.8v4.51c0,0.41,0.07,0.7,0.2,0.86c0.13,0.17,0.33,0.25,0.6,0.25c0.14,0,0.28-0.02,0.41-0.05
		c0.13-0.03,0.26-0.06,0.39-0.09l0.45,2.5c-0.79,0.22-1.53,0.33-2.22,0.33c-0.94,0-1.68-0.24-2.21-0.72
		c-0.53-0.48-0.79-1.32-0.79-2.54V7.8h-1.7V6.48l1.7-1.32v-1.6l3.16-1.75v3.37h2.19V7.8H69.62z"/>
	<path class="st0" d="M76.65,1.83c0,0.5-0.18,0.94-0.53,1.32c-0.35,0.38-0.78,0.57-1.29,0.57c-0.52,0-0.95-0.19-1.31-0.57
		c-0.35-0.38-0.53-0.82-0.53-1.32c0-0.52,0.18-0.97,0.53-1.34c0.35-0.38,0.79-0.57,1.31-0.57c0.5,0,0.93,0.19,1.29,0.57
		C76.47,0.87,76.65,1.31,76.65,1.83z M73.23,15.94V5.18h3.19v10.76H73.23z"/>
	<path class="st0" d="M84.32,15.94V8.77c0-0.72-0.31-1.09-0.92-1.09c-0.57,0-1.13,0.28-1.68,0.83v7.43h-3.19V5.18h3.07v1.63
		c1.01-1.24,2.09-1.86,3.26-1.86c0.9,0,1.56,0.28,1.99,0.83c0.43,0.55,0.65,1.29,0.65,2.22v7.95H84.32z"/>
	<path class="st0" d="M94.2,15.94v-1.01c-0.28,0.35-0.63,0.63-1.04,0.85c-0.41,0.22-0.89,0.33-1.44,0.33
		c-0.39,0-0.77-0.07-1.13-0.22c-0.36-0.15-0.67-0.37-0.93-0.66c-0.26-0.29-0.47-0.64-0.62-1.06c-0.16-0.42-0.24-0.89-0.24-1.43
		c0-0.49,0.07-0.94,0.22-1.37c0.15-0.42,0.36-0.79,0.64-1.1c0.28-0.31,0.61-0.55,1-0.73c0.39-0.18,0.84-0.27,1.35-0.27
		c0.46,0,0.85,0.05,1.17,0.14c0.32,0.09,0.63,0.23,0.91,0.4V9.12c0-0.58-0.15-0.99-0.44-1.23c-0.29-0.24-0.74-0.35-1.33-0.35
		c-0.35,0-0.7,0.03-1.06,0.09c-0.36,0.06-0.74,0.16-1.13,0.28l-0.28-2.45c0.43-0.14,0.91-0.26,1.45-0.37
		c0.54-0.1,1.05-0.15,1.52-0.15c1.51,0,2.62,0.33,3.34,0.98c0.72,0.65,1.07,1.65,1.07,2.98v7.03H94.2z M94.08,11.46
		c-0.28-0.22-0.64-0.33-1.06-0.33c-0.31,0-0.59,0.11-0.84,0.33c-0.24,0.22-0.37,0.59-0.37,1.11c0,0.5,0.11,0.87,0.34,1.09
		c0.23,0.22,0.5,0.33,0.81,0.33c0.27,0,0.49-0.04,0.66-0.11c0.17-0.07,0.32-0.17,0.45-0.29V11.46z"/>
</g>
<g>
	<path class="st1" d="M34.57,36.72v-0.84c-0.26,0.26-0.56,0.51-0.9,0.72c-0.34,0.22-0.7,0.33-1.1,0.33c-0.38,0-0.75-0.11-1.11-0.34
		s-0.67-0.57-0.94-1.03c-0.27-0.46-0.48-1.03-0.64-1.72c-0.16-0.68-0.24-1.48-0.24-2.38c0-0.86,0.09-1.63,0.26-2.34
		c0.18-0.7,0.41-1.3,0.69-1.8c0.28-0.5,0.61-0.88,0.99-1.16c0.38-0.27,0.76-0.41,1.16-0.41c0.35,0,0.66,0.06,0.93,0.18
		c0.27,0.12,0.53,0.29,0.79,0.53V19.6h2.2v17.12H34.57z M34.46,28.04c-0.17-0.14-0.33-0.25-0.48-0.33
		c-0.15-0.08-0.34-0.12-0.57-0.12c-0.44,0-0.82,0.32-1.13,0.95c-0.31,0.63-0.46,1.61-0.46,2.93c0,0.69,0.04,1.26,0.11,1.72
		c0.08,0.46,0.18,0.83,0.32,1.1c0.14,0.27,0.3,0.47,0.49,0.58c0.19,0.12,0.4,0.18,0.63,0.18c0.41,0,0.77-0.17,1.08-0.51V28.04z"/>
	<path class="st1" d="M44.9,30.91c0,0.17,0,0.37-0.01,0.58c-0.01,0.22-0.03,0.42-0.06,0.61h-4.66c-0.02,0.87,0.15,1.58,0.51,2.13
		c0.35,0.55,0.89,0.82,1.61,0.82c0.29,0,0.59-0.05,0.91-0.15c0.31-0.1,0.65-0.24,1-0.41l0.3,1.77c-0.46,0.25-0.89,0.43-1.29,0.54
		c-0.4,0.11-0.8,0.16-1.22,0.16c-1.24,0-2.21-0.47-2.9-1.41c-0.7-0.94-1.04-2.33-1.04-4.17c0-0.76,0.08-1.49,0.25-2.17
		c0.17-0.68,0.41-1.28,0.71-1.8c0.31-0.51,0.69-0.92,1.15-1.23c0.46-0.3,0.97-0.46,1.54-0.46c0.54,0,1,0.13,1.4,0.4
		c0.4,0.26,0.73,0.63,1,1.1c0.27,0.47,0.47,1.02,0.61,1.65S44.9,30.18,44.9,30.91z M42.95,30.63c-0.02-0.87-0.12-1.59-0.32-2.16
		c-0.2-0.57-0.51-0.85-0.94-0.85c-0.41,0-0.75,0.25-1.01,0.76c-0.26,0.51-0.41,1.26-0.46,2.25H42.95z"/>
	<path class="st1" d="M51.47,33.8c0,0.42-0.07,0.82-0.21,1.2c-0.14,0.38-0.34,0.72-0.6,1c-0.26,0.29-0.57,0.52-0.93,0.69
		c-0.36,0.17-0.76,0.26-1.2,0.26c-0.54,0-1.05-0.09-1.53-0.26c-0.48-0.17-0.98-0.41-1.48-0.72l0.73-1.73
		c0.4,0.25,0.77,0.44,1.11,0.58c0.34,0.14,0.67,0.21,0.98,0.21c0.32,0,0.58-0.09,0.77-0.28c0.19-0.19,0.29-0.46,0.29-0.82
		c0-0.42-0.18-0.79-0.55-1.12c-0.37-0.33-0.78-0.67-1.23-1.04c-0.45-0.37-0.86-0.78-1.23-1.25c-0.37-0.47-0.55-1.04-0.55-1.73
		c0-0.4,0.07-0.79,0.22-1.17c0.15-0.37,0.34-0.7,0.6-0.98c0.25-0.28,0.56-0.51,0.91-0.68s0.73-0.26,1.15-0.26
		c0.54,0,1,0.07,1.4,0.21c0.4,0.14,0.8,0.34,1.22,0.61l-0.78,1.7c-0.35-0.22-0.65-0.37-0.91-0.47c-0.25-0.09-0.51-0.14-0.77-0.14
		c-0.31,0-0.55,0.09-0.73,0.28c-0.18,0.19-0.28,0.44-0.28,0.75c0,0.25,0.09,0.48,0.26,0.7c0.18,0.22,0.4,0.44,0.67,0.65
		c0.27,0.22,0.56,0.45,0.87,0.69s0.6,0.51,0.87,0.81c0.27,0.3,0.49,0.63,0.67,1C51.38,32.89,51.47,33.32,51.47,33.8z"/>
	<path class="st1" d="M55.16,22.9c0,0.39-0.13,0.74-0.38,1.04c-0.25,0.3-0.58,0.46-0.98,0.46c-0.4,0-0.72-0.15-0.98-0.46
		c-0.25-0.3-0.38-0.65-0.38-1.04c0-0.4,0.13-0.76,0.38-1.05c0.25-0.3,0.58-0.44,0.98-0.44c0.4,0,0.72,0.15,0.98,0.44
		C55.04,22.14,55.16,22.49,55.16,22.9z M52.71,36.72V25.98h2.2v10.74H52.71z"/>
	<path class="st1" d="M63.31,37.8c0,1.24-0.27,2.14-0.8,2.67c-0.54,0.54-1.28,0.81-2.23,0.81c-0.54,0-1-0.03-1.4-0.11
		c-0.4-0.07-0.81-0.18-1.24-0.34l0.28-1.89c0.66,0.25,1.31,0.37,1.95,0.37c0.46,0,0.78-0.13,0.96-0.37
		c0.18-0.25,0.28-0.63,0.28-1.14v-1.75c-0.26,0.25-0.54,0.46-0.84,0.63c-0.3,0.17-0.63,0.26-1,0.26c-0.38,0-0.75-0.11-1.11-0.34
		c-0.36-0.23-0.68-0.57-0.95-1.03c-0.28-0.46-0.5-1.03-0.67-1.7c-0.17-0.68-0.25-1.46-0.25-2.35c0-0.84,0.09-1.61,0.26-2.31
		c0.18-0.7,0.41-1.3,0.7-1.81c0.29-0.51,0.63-0.89,1.01-1.17c0.38-0.27,0.78-0.41,1.19-0.41c0.38,0,0.72,0.09,1.01,0.26
		c0.29,0.17,0.54,0.39,0.76,0.65v-0.75h2.09V37.8z M61.11,28.06c-0.15-0.14-0.31-0.25-0.47-0.33c-0.16-0.08-0.36-0.12-0.59-0.12
		c-0.44,0-0.82,0.34-1.13,1c-0.31,0.67-0.46,1.63-0.46,2.87c0,0.67,0.04,1.23,0.13,1.68c0.08,0.45,0.2,0.82,0.33,1.1
		c0.14,0.28,0.3,0.48,0.49,0.6c0.19,0.12,0.4,0.18,0.63,0.18c0.4,0,0.75-0.17,1.06-0.51V28.06z"/>
	<path class="st1" d="M69.7,36.72v-7.89c0-0.75-0.3-1.12-0.9-1.12c-0.31,0-0.58,0.09-0.83,0.26c-0.24,0.17-0.48,0.41-0.71,0.72v8.03
		h-2.2V25.98h2.14v1.54c0.34-0.54,0.73-0.98,1.17-1.31c0.44-0.33,0.93-0.49,1.47-0.49c0.73,0,1.26,0.25,1.58,0.75
		c0.32,0.5,0.48,1.14,0.48,1.91v8.34H69.7z"/>
</g>
<path class="st0" d="M11.17,41.28C6.11,41.28,0,37.56,0,32.96V12.13c0-4.3,5.32-7.81,10.13-8.27V0h1.04
	c5.15,0,11.17,3.17,11.17,12.13v20.83C22.34,37.56,16.23,41.28,11.17,41.28 M11.17,5.59c-4.01,0-9.1,3.08-9.1,6.54v20.83
	c0,3.46,5.09,6.54,9.1,6.54c4.01,0,9.1-3.08,9.1-6.54V12.13c0-7.04-4-9.9-8.07-10.31v3.77H11.17z"/>
<path class="st2" d="M14.46,26.09v3.92c0,1.97-0.95,2.92-2.91,2.92c-3.21,0-3.38-2.05-3.38-5.39V16.23c0-2.36,1.06-3.45,3.34-3.45
	c1.02,0,1.87,0.41,2.26,1.11c0.41,0.68,0.41,1.31,0.41,4.81v0.33h2.66v-3.59c0-1.98-0.75-3.32-2.3-4.1c-0.89-0.47-2-0.71-3.24-0.71
	c-1.87,0-3.21,0.46-4.23,1.41c-1.54,1.28-1.54,2.71-1.54,4.52v12.59c0,2.2,0.33,3.32,1.28,4.32c1.06,1.08,2.55,1.63,4.41,1.63
	c3.92,0,5.92-1.72,5.92-5.1v-3.92H14.46z"/>
<path class="st3" d="M14.46,26.09v3.92c0,1.97-0.95,2.92-2.91,2.92c-3.21,0-3.38-2.05-3.38-5.39V16.23c0-2.36,1.06-3.45,3.34-3.45
	c1.02,0,1.87,0.41,2.26,1.11c0.41,0.68,0.41,1.31,0.41,4.81v0.33h2.66v-3.59c0-1.98-0.75-3.32-2.3-4.1c-0.89-0.47-2-0.71-3.24-0.71
	c-1.87,0-3.21,0.46-4.23,1.41c-1.54,1.28-1.54,2.71-1.54,4.52v12.59c0,2.2,0.33,3.32,1.28,4.32c1.06,1.08,2.55,1.63,4.41,1.63
	c3.92,0,5.92-1.72,5.92-5.1v-3.92H14.46z"/>
</svg>
