<?xml version="1.0" encoding="utf-8"?>
<!-- Generator: Adobe Illustrator 21.0.2, SVG Export Plug-In . SVG Version: 6.00 Build 0)  -->
<svg version="1.1" id="Capa_1" xmlns="http://www.w3.org/2000/svg" xmlns:xlink="http://www.w3.org/1999/xlink" x="0px" y="0px"
	 viewBox="0 0 160 75" style="enable-background:new 0 0 160 75;" xml:space="preserve">
<style type="text/css">
	.st0{fill:#FF8825;}
	.st1{fill:#B2B2B2;}
</style>
<g>
	<g>
		<path d="M19.1,3.7c8.5,0,16.5,4.6,16.5,22.4v29.8c0,8.5-6.9,15.4-15.4,15.4h-1.1c-8.5,0-15.4-6.9-15.4-15.4V26.1
			c0-8.5,6.9-15.4,15.4-15.4V3.7 M19.1,0h-3.7v3.7v3.6C6.7,9,0,16.8,0,26.1v29.8C0,66.4,8.6,75,19.1,75h1.1
			c10.6,0,19.1-8.6,19.1-19.1V26.1c0-4.6-0.5-8.7-1.5-12.1c-1-3.3-2.5-6.1-4.5-8.3C29.9,1.9,25.1,0,19.1,0L19.1,0z"/>
		<path class="st0" d="M24.5,47.1v7.3c0,2.4-1.9,4.3-4.3,4.3h-0.9c-2.4,0-4.3-1.9-4.3-4.3V28.7c0-2.4,1.9-4.3,4.3-4.3h0.9
			c2.4,0,4.3,1.9,4.3,4.3V36h6.4v-7.3c0-5.5-4.4-9.9-9.9-9.9h-2.7c-5.5,0-9.9,4.4-9.9,9.9v25.7c0,5.5,4.4,9.9,9.9,9.9H21
			c5.5,0,9.9-4.4,9.9-9.9v-7.3H24.5z"/>
	</g>
	<g>
		<g>
			<path d="M59.3,32.1c-0.6,0.4-1.3,0.8-2.1,1.1c-0.8,0.3-1.7,0.4-2.6,0.4c-1.4,0-2.5-0.2-3.6-0.7c-1-0.5-1.9-1.1-2.6-2
				c-0.7-0.8-1.2-1.8-1.6-2.9c-0.4-1.1-0.5-2.3-0.5-3.6c0-1.3,0.2-2.5,0.5-3.7c0.4-1.1,0.9-2.1,1.6-3c0.7-0.8,1.6-1.5,2.6-2
				c1-0.5,2.2-0.7,3.6-0.7c0.9,0,1.8,0.1,2.6,0.4c0.8,0.3,1.5,0.6,2.1,1.1l-1.6,3.8c-0.4-0.3-0.9-0.5-1.3-0.6
				c-0.5-0.1-1-0.2-1.5-0.2c-0.9,0-1.7,0.4-2.3,1.2c-0.7,0.8-1,2-1,3.7c0,1.6,0.3,2.8,1,3.6c0.7,0.8,1.5,1.2,2.4,1.2
				c1,0,1.9-0.3,2.8-0.8L59.3,32.1z"/>
			<path d="M71.3,20.8c-1.2-0.4-2.2-0.5-3-0.4c-0.8,0.1-1.5,0.4-1.9,0.9v11.9h-5.3V15.4h5.1v3c0.6-1,1.3-1.8,2.1-2.4
				C69,15.3,70,15,71.3,15V20.8z"/>
			<path d="M87.3,23.5c0,0.3,0,0.7,0,1.2c0,0.5,0,0.9-0.1,1.2h-9.3c0.2,2.3,1.4,3.4,3.8,3.4c0.6,0,1.3-0.1,2-0.3s1.5-0.4,2.2-0.7
				l0.4,4.1c-0.9,0.3-1.8,0.6-2.6,0.8c-0.8,0.2-1.7,0.3-2.5,0.3c-1.4,0-2.6-0.2-3.7-0.7c-1-0.5-1.9-1.1-2.6-1.9
				c-0.7-0.8-1.2-1.8-1.5-2.9c-0.3-1.1-0.5-2.4-0.5-3.7c0-1.2,0.2-2.4,0.5-3.5c0.3-1.1,0.8-2.1,1.5-3c0.6-0.9,1.4-1.5,2.4-2.1
				c1-0.5,2.1-0.8,3.3-0.8c1.2,0,2.2,0.2,3,0.7c0.9,0.4,1.6,1,2.2,1.8c0.6,0.8,1,1.7,1.3,2.7C87.2,21.2,87.3,22.3,87.3,23.5z
				 M82.8,22.9c-0.1-1.2-0.3-2.1-0.7-2.7c-0.4-0.7-1-1-1.7-1c-0.7,0-1.2,0.3-1.7,0.9c-0.4,0.6-0.7,1.5-0.8,2.8H82.8z"/>
			<path d="M97.8,33.2v-1.7c-0.5,0.6-1,1-1.7,1.4c-0.7,0.4-1.5,0.5-2.4,0.5c-0.7,0-1.3-0.1-1.9-0.4c-0.6-0.2-1.1-0.6-1.5-1.1
				c-0.4-0.5-0.8-1.1-1-1.8c-0.3-0.7-0.4-1.5-0.4-2.4c0-0.8,0.1-1.6,0.4-2.3c0.2-0.7,0.6-1.3,1.1-1.8c0.5-0.5,1-0.9,1.7-1.2
				c0.7-0.3,1.4-0.4,2.2-0.4c0.8,0,1.4,0.1,1.9,0.2c0.5,0.2,1,0.4,1.5,0.7v-1.1c0-1-0.2-1.6-0.7-2c-0.5-0.4-1.2-0.6-2.2-0.6
				c-0.6,0-1.2,0.1-1.8,0.2c-0.6,0.1-1.2,0.3-1.9,0.5l-0.5-4.1c0.7-0.2,1.5-0.4,2.4-0.6c0.9-0.2,1.7-0.3,2.5-0.3
				c2.5,0,4.3,0.5,5.5,1.6c1.2,1.1,1.8,2.7,1.8,4.9v11.7H97.8z M97.6,25.8c-0.5-0.4-1.1-0.5-1.8-0.5c-0.5,0-1,0.2-1.4,0.5
				c-0.4,0.4-0.6,1-0.6,1.8c0,0.8,0.2,1.4,0.6,1.8c0.4,0.4,0.8,0.5,1.3,0.5c0.4,0,0.8-0.1,1.1-0.2c0.3-0.1,0.5-0.3,0.7-0.5V25.8z"/>
			<path d="M112.4,19.7v7.5c0,0.7,0.1,1.2,0.3,1.4c0.2,0.3,0.6,0.4,1,0.4c0.2,0,0.5,0,0.7-0.1c0.2-0.1,0.4-0.1,0.6-0.2l0.7,4.1
				c-1.3,0.4-2.5,0.5-3.7,0.5c-1.6,0-2.8-0.4-3.7-1.2c-0.9-0.8-1.3-2.2-1.3-4.2v-8.4h-2.8v-2.2l2.8-2.2v-2.7l5.2-2.9v5.6h3.6v4.3
				H112.4z"/>
			<path d="M124,9.8c0,0.8-0.3,1.6-0.9,2.2s-1.3,0.9-2.1,0.9c-0.9,0-1.6-0.3-2.2-0.9s-0.9-1.4-0.9-2.2c0-0.9,0.3-1.6,0.9-2.2
				s1.3-0.9,2.2-0.9c0.8,0,1.5,0.3,2.1,0.9S124,8.9,124,9.8z M118.4,33.2V15.4h5.3v17.8H118.4z"/>
			<path d="M136.7,33.2V21.3c0-1.2-0.5-1.8-1.5-1.8c-0.9,0-1.9,0.5-2.8,1.4v12.3h-5.3V15.4h5.1v2.7c1.7-2.1,3.5-3.1,5.4-3.1
				c1.5,0,2.6,0.5,3.3,1.4c0.7,0.9,1.1,2.1,1.1,3.7v13.2H136.7z"/>
			<path d="M153.1,33.2v-1.7c-0.5,0.6-1,1-1.7,1.4c-0.7,0.4-1.5,0.5-2.4,0.5c-0.7,0-1.3-0.1-1.9-0.4c-0.6-0.2-1.1-0.6-1.5-1.1
				c-0.4-0.5-0.8-1.1-1-1.8c-0.3-0.7-0.4-1.5-0.4-2.4c0-0.8,0.1-1.6,0.4-2.3c0.2-0.7,0.6-1.3,1.1-1.8c0.5-0.5,1-0.9,1.7-1.2
				c0.7-0.3,1.4-0.4,2.2-0.4c0.8,0,1.4,0.1,1.9,0.2c0.5,0.2,1,0.4,1.5,0.7v-1.1c0-1-0.2-1.6-0.7-2c-0.5-0.4-1.2-0.6-2.2-0.6
				c-0.6,0-1.2,0.1-1.8,0.2c-0.6,0.1-1.2,0.3-1.9,0.5l-0.5-4.1c0.7-0.2,1.5-0.4,2.4-0.6c0.9-0.2,1.7-0.3,2.5-0.3
				c2.5,0,4.3,0.5,5.5,1.6c1.2,1.1,1.8,2.7,1.8,4.9v11.7H153.1z M152.9,25.8c-0.5-0.4-1.1-0.5-1.8-0.5c-0.5,0-1,0.2-1.4,0.5
				c-0.4,0.4-0.6,1-0.6,1.8c0,0.8,0.2,1.4,0.6,1.8c0.4,0.4,0.8,0.5,1.3,0.5c0.4,0,0.8-0.1,1.1-0.2c0.3-0.1,0.5-0.3,0.7-0.5V25.8z"/>
		</g>
		<g>
			<path class="st1" d="M56.8,64.4v-1.6c-0.5,0.6-1.1,1-1.8,1.4c-0.7,0.3-1.5,0.5-2.3,0.5c-0.9,0-1.7-0.2-2.4-0.6
				c-0.7-0.4-1.4-0.9-2-1.7c-0.6-0.7-1-1.7-1.3-2.7c-0.3-1.1-0.5-2.3-0.5-3.7c0-1.4,0.2-2.6,0.5-3.7c0.4-1.1,0.8-2.1,1.4-2.9
				c0.6-0.8,1.3-1.5,2.1-1.9c0.8-0.5,1.6-0.7,2.5-0.7c1.5,0,2.8,0.5,3.7,1.5v-8.6h2.9v24.7H56.8z M56.7,50.9
				c-0.4-0.5-0.9-0.9-1.4-1.2c-0.5-0.3-1.2-0.5-1.9-0.5c-1.2,0-2.1,0.6-2.9,1.9c-0.8,1.2-1.2,2.9-1.2,5c0,2.1,0.4,3.6,1.1,4.7
				c0.7,1.1,1.7,1.6,3,1.6c0.7,0,1.3-0.2,1.9-0.5c0.6-0.3,1-0.7,1.4-1.3V50.9z"/>
			<path class="st1" d="M75.2,55.1c0,0.3,0,0.5,0,0.8c0,0.2,0,0.5-0.1,0.8h-9.7c0,0.8,0.1,1.5,0.3,2.2c0.2,0.7,0.5,1.3,0.9,1.7
				c0.4,0.5,0.9,0.9,1.5,1.2c0.6,0.3,1.3,0.4,2.2,0.4c1,0,2.3-0.3,3.7-0.9l0.7,2.3c-1.7,0.7-3.3,1.1-4.7,1.1c-2.3,0-4.1-0.8-5.4-2.3
				c-1.3-1.5-1.9-3.7-1.9-6.6c0-1.2,0.1-2.4,0.4-3.5c0.3-1.1,0.7-2.1,1.3-2.9c0.6-0.8,1.3-1.5,2.1-2c0.8-0.5,1.8-0.7,2.8-0.7
				c0.9,0,1.8,0.2,2.5,0.6c0.7,0.4,1.3,1,1.9,1.8c0.5,0.8,0.9,1.6,1.2,2.7C75.1,52.8,75.2,54,75.2,55.1z M72.6,54.5
				c0-0.7-0.1-1.4-0.3-2.1c-0.1-0.6-0.4-1.2-0.6-1.7c-0.3-0.5-0.6-0.9-1-1.2c-0.4-0.3-0.9-0.4-1.4-0.4c-1.1,0-1.9,0.5-2.5,1.4
				c-0.6,1-1,2.3-1.1,3.9H72.6z"/>
			<path class="st1" d="M86.9,59.7c0,0.7-0.1,1.3-0.4,1.9c-0.2,0.6-0.6,1.2-1,1.6c-0.4,0.5-0.9,0.8-1.5,1.1c-0.6,0.3-1.3,0.4-2,0.4
				c-1.8,0-3.5-0.6-5.1-1.9l1.3-2.1c0.6,0.5,1.2,0.9,1.9,1.2c0.6,0.3,1.3,0.4,1.9,0.4c0.8,0,1.3-0.2,1.7-0.6c0.4-0.4,0.6-1,0.6-1.8
				c0-0.6-0.2-1.1-0.5-1.5c-0.3-0.4-0.7-0.8-1.2-1.1c-0.5-0.3-1-0.7-1.6-1c-0.6-0.3-1.1-0.7-1.6-1.2c-0.5-0.4-0.9-0.9-1.2-1.5
				c-0.3-0.6-0.5-1.3-0.5-2.1c0-0.6,0.1-1.2,0.4-1.8s0.6-1.1,1-1.6c0.4-0.5,1-0.8,1.6-1.1c0.6-0.3,1.3-0.4,2-0.4
				c0.8,0,1.6,0.1,2.3,0.4c0.7,0.3,1.4,0.7,2,1.1l-1.3,2.2c-0.5-0.4-1-0.7-1.5-0.9c-0.5-0.2-1-0.3-1.6-0.3c-0.8,0-1.3,0.2-1.7,0.6
				c-0.4,0.4-0.6,0.9-0.6,1.6c0,0.5,0.2,1,0.5,1.4c0.3,0.4,0.7,0.7,1.2,1.1c0.5,0.3,1,0.7,1.6,1c0.6,0.3,1.1,0.7,1.6,1.2
				c0.5,0.5,0.9,1,1.2,1.6S86.9,58.9,86.9,59.7z"/>
			<path class="st1" d="M93.2,41.7c0,0.5-0.2,1-0.5,1.4c-0.4,0.4-0.8,0.6-1.3,0.6c-0.5,0-1-0.2-1.3-0.6c-0.4-0.4-0.5-0.8-0.5-1.4
				s0.2-1,0.5-1.4c0.4-0.4,0.8-0.6,1.3-0.6c0.5,0,1,0.2,1.3,0.6C93.1,40.7,93.2,41.2,93.2,41.7z M90,64.4V47.1h2.9v17.3H90z"/>
			<path class="st1" d="M109,66.5c0,2.2-0.5,3.8-1.5,4.7c-1,0.9-2.4,1.4-4.1,1.4c-0.8,0-1.6-0.1-2.4-0.2c-0.8-0.2-1.6-0.4-2.4-0.7
				l0.5-2.6c0.7,0.3,1.4,0.5,2.1,0.6c0.7,0.1,1.3,0.2,1.9,0.2c1.1,0,1.9-0.3,2.4-0.8c0.5-0.5,0.7-1.4,0.7-2.5V63
				c-0.5,0.5-1.1,1-1.8,1.3c-0.7,0.3-1.4,0.5-2.3,0.5c-0.9,0-1.7-0.2-2.4-0.6c-0.7-0.4-1.4-0.9-2-1.7c-0.6-0.7-1-1.7-1.3-2.7
				c-0.3-1.1-0.5-2.3-0.5-3.7c0-1.4,0.2-2.6,0.5-3.7c0.4-1.1,0.8-2.1,1.4-2.9c0.6-0.8,1.3-1.5,2.1-1.9c0.8-0.5,1.6-0.7,2.5-0.7
				c0.8,0,1.5,0.1,2.2,0.4c0.7,0.3,1.2,0.7,1.7,1.1v-1.3h2.7V66.5z M106.2,50.9c-0.4-0.5-0.9-0.9-1.4-1.2c-0.5-0.3-1.2-0.5-1.9-0.5
				c-1.3,0-2.3,0.6-3,1.9c-0.8,1.3-1.1,2.9-1.1,5c0,2.1,0.4,3.6,1.1,4.7c0.7,1.1,1.8,1.6,3.1,1.6c0.6,0,1.2-0.2,1.8-0.5
				c0.6-0.3,1-0.7,1.4-1.3V50.9z"/>
			<path class="st1" d="M122,64.4V52.2c0-2-0.8-2.9-2.4-2.9c-0.8,0-1.5,0.2-2.2,0.7c-0.7,0.5-1.3,1.1-1.8,1.8v12.6h-2.9V47.1h2.7
				v2.6c0.7-0.9,1.4-1.6,2.3-2.2c0.9-0.6,1.8-0.8,2.8-0.8c1.5,0,2.6,0.5,3.2,1.4c0.7,0.9,1,2.1,1,3.6v12.7H122z"/>
		</g>
	</g>
</g>
</svg>
